<svg xmlns="http://www.w3.org/2000/svg" xmlns:xlink="http://www.w3.org/1999/xlink" xmlns:fi="http://pattern.flaticon.com/" width="1080" height="600" viewBox="0 0 700 388.88888888888886"><rect x="0px" y="0px" width="100%" height="100%" opacity="0.77" fill="#fdeba4"/><defs><g id="a"><path d="M315 313c-21-12-46-19-73-20v22a7 7 0 1 1-15 0v-22c-26 1-51 8-72 20l72 73v-41a7 7 0 1 1 15 0v41l73-73z" fill="#fff" transform="rotate(15 193 -148) scale(.19149)"/><path d="M154 156a81 81 0 1 0 158-24 67 67 0 0 0-72 8 7 7 0 0 1-10 0 67 67 0 0 0-72-8c-3 8-4 16-4 24z" fill="#f2ebd9" transform="rotate(15 193 -148) scale(.19149)"/><path d="M139 304a184 184 0 0 1 215 17v-38c-4 0-8-4-8-8V156c0-23-7-45-20-64v33a96 96 0 1 1-182 0V92c-13 19-20 41-20 64v119c0 4-4 8-8 8v38a186 186 0 0 1 23-17z" fill="#ffcc75" transform="rotate(15 193 -148) scale(.19149)"/><path d="M159 115a83 83 0 0 1 76 10 82 82 0 0 1 76-10V48c0-5 3-8 8-8V25H159v90z" fill="#6da8d6" transform="rotate(15 193 -148) scale(.19149)"/><path d="M124 275V156c0-23 7-45 20-64v33a96 96 0 1 0 182 0V92c13 19 20 41 20 64v119a7 7 0 1 0 15 0V156c0-33-12-64-35-87V48a7 7 0 1 0-15 0v67a83 83 0 0 0-76 10 82 82 0 0 0-76-10V25h226v130l-11 26a7 7 0 1 0 14 6l4-11 5 11a8 8 0 1 0 14-6l-11-26V25h13a7 7 0 1 0 0-15h-13V8a7 7 0 1 0-15 0v2H58a7 7 0 1 0 0 15h86v44c-23 23-35 54-35 87v119a7 7 0 1 0 15 0zm63-150c16 0 31 5 43 15a7 7 0 0 0 10 0 67 67 0 0 1 72-8 81 81 0 1 1-155 0c10-5 20-7 30-7z" fill="#082947" transform="rotate(15 193 -148) scale(.19149)"/><path d="M138 455h267c-3-56-32-105-76-134l-89 88v1h-2v1h-2a8 8 0 0 1-2 0h-2v-1h-2v-1l-89-88c-44 29-73 78-76 134h43c4 0 7 3 7 8h15c0-5 3-8 8-8z" fill="#185f8d" transform="rotate(15 193 -148) scale(.19149)"/><path d="M354 321a186 186 0 0 0-216-16 186 186 0 0 0-88 158c0 4 3 7 8 7h50a7 7 0 1 0 0-15H65c3-56 32-105 76-134l89 88v1h2v1h2a8 8 0 0 0 2 0h2v-1h2v-1l89-88c44 29 73 78 76 134H138a7 7 0 1 0 0 15h275c4 0 7-3 7-7 0-57-26-108-66-142zm-119 17c-4 0-7 3-7 7v41l-73-73c21-12 46-19 73-20v22a7 7 0 1 0 15 0v-22c26 1 51 8 72 20l-72 73v-41c0-4-4-7-8-7z" fill="#082947" transform="rotate(15 193 -148) scale(.19149)"/></g><g id="c"><path d="M379 359a190 190 0 1 0-20 20c3-3 7-2 10 1l11-11c-3-3-4-7-1-10zM228 68a8 8 0 0 1 15 0v30a8 8 0 0 1-15 0V68zM98 243H68a8 8 0 0 1 0-15h30a8 8 0 0 1 0 15zm145 160a8 8 0 0 1-15 0v-30a8 8 0 0 1 15 0v30zm116-260l-97 97a28 28 0 0 1-40 19l-79 78a7 7 0 0 1-10 0c-3-2-3-7 0-10l78-79c-1-2-3-5-3-8l-65-65c-3-3-3-8 0-11l21-21c3-3 8-3 11 0l65 65h1l10-10c-3-3-3-8 0-11l76-76a8 8 0 0 1 11 0l21 21c3 3 3 8 0 11zm14 100a8 8 0 0 1 0-15h30a8 8 0 0 1 0 15h-30z" fill="#fff" transform="translate(315 140) scale(.14894)"/><path d="M211 222c2-5 6-9 11-11l-52-52-11 11 52 52z" fill="#6da8d6" transform="translate(315 140) scale(.14894)"/><path d="M259 222l84-84-11-11-70 71c-3 3-8 3-11 0l-10 10c8 2 14 7 18 14z" fill="#98d9d5" transform="translate(315 140) scale(.14894)"/><path d="M235 15a220 220 0 1 0 0 440 220 220 0 0 0 0-440zm155 353c-2 4-7 4-10 1l-11 11c3 3 3 8-1 10a205 205 0 1 1 22-22z" fill="#ff6e1d" transform="translate(315 140) scale(.14894)"/><path d="M401 69a233 233 0 0 0-332 0 233 233 0 0 0 0 332 233 233 0 0 0 332 0 233 233 0 0 0 0-332zM235 455a220 220 0 1 1 0-440 220 220 0 0 1 0 440z" fill="#082947" transform="translate(315 140) scale(.14894)"/><path d="M248 235a13 13 0 1 0-26 0 13 13 0 0 0 26 0z" fill="#ffcc75" transform="translate(315 140) scale(.14894)"/><path d="M235 105c4 0 8-3 8-7V68a8 8 0 0 0-15 0v30c0 4 3 7 7 7zm175 130c0-4-3-7-7-7h-30a8 8 0 0 0 0 15h30c4 0 7-4 7-8zM235 365c-4 0-7 3-7 8v30a8 8 0 0 0 15 0v-30c0-5-4-8-8-8zM98 228H68a8 8 0 0 0 0 15h30a8 8 0 0 0 0-15zm240-117a8 8 0 0 0-11 0l-76 76a8 8 0 0 0 11 11l70-71 11 11-84 84c-4-7-10-12-18-14h-1l-65-65c-3-3-8-3-11 0l-21 21c-3 3-3 8 0 11l65 65c0 3 2 6 3 8l-78 79a7 7 0 1 0 10 10l79-78c4 2 8 3 13 3 14 0 25-9 27-22l97-97c3-3 3-8 0-11l-21-21zM222 211c-5 2-9 6-11 11l-52-52 11-11 52 52zm1 24a13 13 0 1 1 25 0 13 13 0 0 1-25 0z" fill="#082947" transform="translate(315 140) scale(.14894)"/><path d="M235 30a205 205 0 1 0 133 360c4-2 4-7 1-10s-7-4-10-1a190 190 0 1 1 20-20c-3 3-2 7 1 10s8 3 10-1A205 205 0 0 0 235 30z" fill="#082947" transform="translate(315 140) scale(.14894)"/></g><g id="e"><path d="M129 45h-23v350h258V45H159c-4 0-8-3-8-8h-15c0 5-3 8-7 8zm106 325h-96a8 8 0 0 1 0-15h96a7 7 0 1 1 0 15zm96-36H139a8 8 0 0 1 0-15h192a7 7 0 1 1 0 15zm0-35H139a8 8 0 0 1 0-15h192a7 7 0 1 1 0 15zm0-36H139a8 8 0 0 1 0-15h192a7 7 0 1 1 0 15zm0-36H139a8 8 0 0 1 0-15h192a7 7 0 1 1 0 15zm0-35H139a8 8 0 0 1 0-15h192a7 7 0 1 1 0 15zm-200-43c0-4 4-8 8-8h96a7 7 0 1 1 0 15h-96c-4 0-8-3-8-7zm200-28H139a8 8 0 0 1 0-15h192a7 7 0 1 1 0 15zm0-51a7 7 0 1 1 0 15H139a8 8 0 0 1 0-15h192z" fill="#fff" transform="rotate(-15 637 -427) scale(.14894)"/><path d="M371 15H99c-13 0-23 10-23 23v395c0 12 10 22 23 22h272c13 0 23-10 23-22V38c0-13-10-23-23-23zM250 440h-30a8 8 0 0 1 0-15h30a7 7 0 1 1 0 15zm129-37c0 4-4 7-8 7H99a8 8 0 0 1-8-8V37c0-4 4-7 8-7h30c4 0 7 3 7 7h15c0-4 4-7 8-7h212c4 0 8 3 8 7v366z" fill="#185f8d" transform="rotate(-15 637 -427) scale(.14894)"/><path d="M371 0H99C78 0 61 17 61 38v395c0 20 17 37 38 37h272c21 0 38-17 38-37V38c0-21-17-38-38-38zm23 433c0 12-10 22-23 22H99c-13 0-23-10-23-22V38c0-13 10-23 23-23h272c13 0 23 10 23 23v395z" fill="#082947" transform="rotate(-15 637 -427) scale(.14894)"/><path d="M371 30H159a8 8 0 0 0 0 15h205v350H106V45h23a7 7 0 1 0 0-15H99c-4 0-8 3-8 7v366a8 8 0 0 0 8 7h272c4 0 8-3 8-7V38c0-5-4-8-8-8zM250 425h-30a8 8 0 0 0 0 15h30a7 7 0 1 0 0-15z" fill="#082947" transform="rotate(-15 637 -427) scale(.14894)"/><path d="M131 77c0 5 4 8 8 8h192a7 7 0 1 0 0-15H139c-4 0-8 3-8 7zm200 29H139a8 8 0 0 0 0 15h192a7 7 0 1 0 0-15zm-192 50h96a7 7 0 1 0 0-15h-96a8 8 0 0 0 0 15zm192 21H139a8 8 0 0 0 0 15h192a7 7 0 1 0 0-15zm0 35H139a8 8 0 0 0 0 15h192a7 7 0 1 0 0-15zm0 36H139a8 8 0 0 0 0 15h192a7 7 0 1 0 0-15zm0 36H139a8 8 0 0 0 0 15h192a7 7 0 1 0 0-15zm0 35H139a8 8 0 0 0 0 15h192a7 7 0 1 0 0-15zm-96 36h-96a8 8 0 0 0 0 15h96a7 7 0 1 0 0-15z" fill="#082947" transform="rotate(-15 637 -427) scale(.14894)"/></g><g transform="translate(63 238) scale(.10638)" id="g"><path d="M365 38a7 7 0 1 1 15 0h15a7 7 0 1 1 15 0v97h15V15h-52c-5 0-8-3-8-7h-15v30h15zm-15 417h75v-63c-4 4-9 6-15 7v34a7 7 0 1 1-15 0h-15a7 7 0 1 1-15 0h-15v22zm60-179c6 1 11 3 15 7v-23h-15v16z" fill="#185f8d"/><rect x="380px" y="400px" width="15px" height="32px" fill="#ffcc75"/><path d="M380 275h15v-22c0-5 3-8 8-8h30c12 0 22-10 22-22v-50c0-13-10-23-22-23h-30c-5 0-8-3-8-7V38h-15v237z" fill="#ffcc75"/><path d="M440 136V8c0-5-3-8-7-8h-60a7 7 0 1 0 0 15h52v120h-15V38a7 7 0 1 0-15 0v105c0 4 3 7 8 7h30c12 0 22 10 22 23v50c0 12-10 22-22 22h-30c-5 0-8 3-8 8v22h-15V38a7 7 0 1 0-15 0v245c0 4 3 7 8 7h30c12 0 22 10 22 23v50c0 12-10 22-22 22h-30c-5 0-8 3-8 8v40a7 7 0 1 0 15 0v-33h15v33a7 7 0 1 0 15 0v-34c6-1 11-3 15-7v63h-75V8c0-5-3-8-7-8H48c-5 0-8 3-8 8v25H23a23 23 0 0 0 0 45h17v75H23a23 23 0 0 0 0 45h17v75H23a23 23 0 0 0 0 45h17v75H23a23 23 0 0 0 0 45h17v25c0 4 3 7 8 7h385c4 0 7-3 7-7V259c17-3 30-18 30-36v-50c0-19-13-34-30-37zm-15 147c-4-4-9-6-15-7v-16h15v23zM15 415c0-4 3-7 8-7h50a8 8 0 0 1 0 15H23c-5 0-8-4-8-8zm40 23h18a23 23 0 0 0 0-45H55v-75h18a23 23 0 0 0 0-45H55v-75h18a23 23 0 0 0 0-45H55V78h18a23 23 0 0 0 0-45H55V15h280v440H55v-17zM15 295c0-4 3-7 8-7h50a8 8 0 0 1 0 15H23c-5 0-8-4-8-8zm0-120c0-4 3-7 8-7h50a8 8 0 0 1 0 15H23c-5 0-8-4-8-8zm0-120c0-4 3-7 8-7h50a8 8 0 0 1 0 15H23c-5 0-8-4-8-8z" fill="#082947"/><path d="M350 433h15v-40c0-5 3-8 8-8h30c12 0 22-10 22-22v-50c0-13-10-23-22-23h-30c-5 0-8-3-8-7V38h-15v395z" fill="#f2ebd9"/><path d="M335 15H55v18h18a23 23 0 0 1 0 45H55v75h18a23 23 0 0 1 0 45H55v75h18a23 23 0 0 1 0 45H55v75h18a23 23 0 0 1 0 45H55v17h280V15z" fill="#6da8d6"/><path d="M73 423a8 8 0 0 0 0-15H23a8 8 0 0 0 0 15h50zm0-120a8 8 0 0 0 0-15H23a8 8 0 0 0 0 15h50zm0-120a8 8 0 0 0 0-15H23a8 8 0 0 0 0 15h50zm0-120a8 8 0 0 0 0-15H23a8 8 0 0 0 0 15h50z" fill="#98d9d5"/></g><g transform="translate(218 218) scale(.19149)" id="i"><rect x="325px" y="343px" width="60px" height="25px" fill="#fff"/><path d="M41 86h388l15-15H26zm269 283v-15H41l-15 15zm119-15h-29v15h44z" fill="#f2ebd9"/><path d="M30 343V97L15 82v276zM440 97v246l15 15V82z" fill="#ffcc75"/><rect x="55px" y="383px" width="360px" height="15px" fill="#ffcc75"/><path d="M310 336c0-4 3-7 8-7h75c4 0 7 3 7 7v3h25V101H45v238h265v-3zm-131-79a7 7 0 1 1-12 8l-21-32-22 32a7 7 0 1 1-12-8l25-37-25-37a7 7 0 1 1 12-8l22 32 21-32a7 7 0 1 1 12 8l-24 37 24 37zm86-30h-22v22a7 7 0 1 1-15 0v-22h-23a7 7 0 1 1 0-15h23v-23a7 7 0 1 1 15 0v23h22a7 7 0 1 1 0 15zm28-54c3-3 8-2 10 2l22 32 21-32a8 8 0 0 1 12 8l-26 40v38a7 7 0 1 1-15 0v-38l-26-40c-3-3-2-8 2-10z" fill="#6da8d6"/><path d="M177 173c-3-3-8-2-10 2l-21 32-22-32a7 7 0 1 0-12 8l25 37-25 37a7 7 0 1 0 12 8l22-32 21 32a7 7 0 1 0 12-8l-24-37 24-37c3-3 2-8-2-10zm140 50v38a7 7 0 1 0 15 0v-38l26-40a8 8 0 0 0-12-8l-21 32-22-32a7 7 0 1 0-12 8l26 40zm-52-11h-22v-23a7 7 0 1 0-15 0v23h-23a7 7 0 1 0 0 15h23v22a7 7 0 1 0 15 0v-22h22a7 7 0 1 0 0-15z" fill="#fff"/><path d="M469 380v-1h1V61h-1v-1l-1-1a7 7 0 0 0-1-1h-1v-1h-3l-1-1H8l-1 1H4v1H3a8 8 0 0 0-1 1l-1 1v1H0v318h1v1l1 1a7 7 0 0 0 1 1h1v1h3l1 1h32v22c0 4 3 8 8 8h375c4 0 7-4 7-8v-22h33v-1h3v-1h1a8 8 0 0 0 1-1l1-1zM55 399v-15h360v15H55zm345-30v-15h29l15 15h-44zm-75 0v-25h60v25h-60zM45 339V101h380v238h-25v-3c0-4-3-7-7-7h-75c-5 0-8 3-8 7v3H45zM429 86H41L26 71h418l-15 15zM30 97v246l-15 15V82l15 15zm410 246V97l15-15v276l-15-15zM41 354h269v15H26l15-15z" fill="#082947"/></g><g id="k"><path d="M402 63a435 435 0 0 0-187-1l-7 2v300l10-2a435 435 0 0 1 181 0l9 2V64l-6-1zm-200-1a435 435 0 0 0-188 1l-6 1v300l10-2a435 435 0 0 1 180 0l10 2V64l-6-2z" fill="#efefef" transform="translate(107 71) scale(.14415)"/><path d="M288 182c-12 0-24 1-35 3l-7 1v74l9-1 33-3 8-1v-74l-8 1z" fill="#3e81c8" transform="translate(107 71) scale(.14415)"/><path d="M364 99a437 437 0 0 0-80-3h-7v46h8a434 434 0 0 1 77 3l9 1v-46l-7-1zm-40 164v55l44 3v-54z" fill="#f8a805" transform="translate(107 71) scale(.14415)"/><path d="M48 106v73l44-3v-74z" fill="#3e81c8" transform="translate(107 71) scale(.14415)"/><path d="M168 197l-28-3h-9v48h8l26 3 9 1v-48l-6-1z" fill="#f8a805" transform="translate(107 71) scale(.14415)"/><path d="M115 272l-60 3v42l60-3h8v-42h-8z" fill="#3e81c8" transform="translate(107 71) scale(.14415)"/><path d="M410 56a443 443 0 0 0-202 0A443 443 0 0 0 6 56c-3 1-6 4-6 8v300a8 8 0 0 0 10 8 427 427 0 0 1 197 0h4a427 427 0 0 1 195 0 8 8 0 0 0 10-8V64c0-4-2-7-6-8zM200 354a443 443 0 0 0-184 0V70c60-13 124-13 184 0v284zm200 0a443 443 0 0 0-184 0V70c61-13 124-13 184 0v284z" transform="translate(107 71) scale(.14415)"/><path d="M302 176l-6-3c-17 1-34 2-51 5-4 0-7 4-7 8v74a8 8 0 0 0 9 8c16-3 33-4 49-5 5 0 8-3 8-8v-74l-2-5zm-14 72c-11 0-23 1-34 3v-58c11-2 23-3 34-3v58zm85-156a445 445 0 0 0-97-4c-4 1-7 4-7 8v46a8 8 0 0 0 8 8 430 430 0 0 1 94 4 8 8 0 0 0 8-8v-46c0-4-2-7-6-8zm-10 45a443 443 0 0 0-78-3v-30a430 430 0 0 1 78 3v30zm7 123c-15-3-30-4-45-4a8 8 0 0 0-9 8v54c0 4 4 7 8 8a429 429 0 0 1 44 3 8 8 0 0 0 8-8v-54c0-4-2-7-6-7zm-10 52l-28-2v-38l28 2v38zm24-120a8 8 0 0 1-9 7c-14-3-29-4-43-5a8 8 0 0 1 1-16c15 1 30 2 45 5 4 0 7 5 6 9zm0 28a8 8 0 0 1-9 7c-14-3-29-4-43-5a8 8 0 0 1 1-16c15 1 30 2 45 5 4 0 7 5 6 9zm-88 71c0 5-3 9-8 9a428 428 0 0 0-44 4 8 8 0 0 1-1-16c14-2 30-4 45-4 4 0 8 3 8 7zm0 28c0 5-3 9-8 9a428 428 0 0 0-44 4 8 8 0 0 1-1-16c14-2 30-4 45-4 4 0 8 3 8 7zM98 97a446 446 0 0 0-51 2c-4 0-7 3-7 7v73a8 8 0 0 0 9 8c14-2 29-3 43-3 5-1 8-4 8-8v-73l-2-6zm-14 71l-28 2v-57l28-2v57zm92 22l-44-4a8 8 0 0 0-9 8v48c0 4 4 8 8 8a429 429 0 0 1 43 4 8 8 0 0 0 8-8v-48c0-4-2-7-6-8zm-10 47l-27-3v-32l27 3v32zm-42 28a465 465 0 0 0-70 3c-4 0-7 4-7 8v42a8 8 0 0 0 9 7 428 428 0 0 1 67-2 8 8 0 0 0 8-8v-42c0-5-3-8-7-8zm-9 41a564 564 0 0 0-52 3v-26a429 429 0 0 1 52-3v26zm67-190a8 8 0 0 1-9 6l-43-4a8 8 0 1 1 1-16l45 4c4 1 7 5 6 10zm0 28a8 8 0 0 1-9 6l-43-4a8 8 0 1 1 1-16l45 4c4 1 7 5 6 10zm-81 68c0 5-3 8-8 9a432 432 0 0 0-44 3 8 8 0 0 1-1-16l45-3c4-1 8 3 8 7zm0 28c0 5-3 8-8 9a432 432 0 0 0-44 3 8 8 0 0 1-1-16l45-3c4-1 8 3 8 7zm88 55a8 8 0 0 1-9 6l-29-4a8 8 0 0 1 1-16l31 5c4 0 7 4 6 9zm0 28a8 8 0 0 1-9 6l-29-4a8 8 0 0 1 1-16l31 5c4 0 7 4 6 9z" transform="translate(107 71) scale(.14415)"/></g><g transform="translate(235 88) scale(.11709)" id="m"><path d="M424 116h-40c-4 0-8 4-8 8v216h56V124c0-4-4-8-8-8z" fill="#ff4f19"/><path d="M404 116h-20c-4 0-8 4-8 8v216h28V116zM168 84h-48c-4 0-8 4-8 8v248h64V92c0-4-3-8-8-8z" fill="#e3001e"/><path d="M168 84h-24v256h32V92c0-4-3-8-8-8z" fill="#ff4f19"/><path d="M80 452c-3 0-6-1-7-4l-40-80a8 8 0 1 1 14-7l25 49v-46a8 8 0 1 1 16 0v80a8 8 0 0 1-8 8zm352 0h-2c-3-1-6-4-6-8v-80a8 8 0 1 1 16 0v46l25-49a8 8 0 0 1 14 7l-40 80c-1 3-4 4-7 4z" fill="#868491"/><path d="M248 84h-16c-4 0-8 4-8 8v248h32V92c0-4-4-8-8-8z" fill="#5d647f"/><path d="M368 84h-16c-4 0-8 4-8 8v248h32V92c0-4-4-8-8-8z" fill="#4bb9ec"/><path d="M104 108H88c-4 0-8 4-8 8v223l1 1h31V116c0-4-4-8-8-8z" fill="#ff9100"/><path d="M72 132H48c-4 0-8 4-8 8v200h40V140c0-4-4-8-8-8z" fill="#00c37a"/><path d="M464 100h-24c-4 0-8 4-8 8v232h40V108c0-4-4-8-8-8z" fill="#5d647f"/><path d="M336 60h-40c-4 0-8 4-8 8v272h56V68c0-4-4-8-8-8z" fill="#ff9100"/><path d="M280 116h-16c-4 0-8 4-8 8v216h32V124c0-4-4-8-8-8z" fill="#00c37a"/><path d="M216 100h-32c-4 0-8 4-8 8v232h48V108c0-4-4-8-8-8z" fill="#4bb9ec"/><path d="M504 372H8c-4 0-8-3-8-8v-16c0-4 4-8 8-8h496c5 0 8 4 8 8v16c0 5-3 8-8 8z" fill="#e6be8a"/><rect x="112px" y="108px" width="32px" height="16px" fill="#5d647f"/><rect x="144px" y="108px" width="32px" height="16px" fill="#868491"/><rect x="112px" y="300px" width="32px" height="16px" fill="#5d647f"/><rect x="144px" y="300px" width="32px" height="16px" fill="#868491"/><rect x="272px" y="140px" width="16px" height="16px" fill="#00a077"/><rect x="272px" y="292px" width="16px" height="16px" fill="#00a077"/><rect x="376px" y="140px" width="28px" height="16px" fill="#ff9100"/><rect x="376px" y="292px" width="28px" height="16px" fill="#ff9100"/><rect x="404px" y="140px" width="28px" height="16px" fill="#ffcd00"/><rect x="404px" y="292px" width="28px" height="16px" fill="#ffcd00"/><path d="M176 108v232h24V100h-16c-4 0-8 4-8 8z" fill="#009bca"/><path d="M80 340h16V108h-8c-4 0-8 4-8 8v224z" fill="#ff4f19"/><path d="M40 340h20V132H47c-4 0-7 3-7 7v201z" fill="#00a077"/><path d="M224 340h16V84h-8c-4 0-8 4-8 8v248z" fill="#5c546a"/><path d="M256 340h16V116h-8c-4 0-8 4-8 8v216z" fill="#00a077"/><rect x="256px" y="140px" width="16px" height="16px" fill="#5d647f"/><rect x="256px" y="292px" width="16px" height="16px" fill="#5d647f"/><path d="M288 340h28V60h-20c-4 0-8 4-8 8v272z" fill="#ff4f19"/><path d="M360 84h-8c-4 0-8 4-8 8v248h16V84z" fill="#009bca"/><path d="M452 100h-12c-4 0-8 4-8 8v232h20V100z" fill="#5c546a"/><path d="M0 356v8c0 5 4 8 8 8h496c5 0 8-3 8-8v-8H0z" fill="#c9a07c"/></g><g transform="translate(97 288) scale(.11709)" id="o"><path d="M424 116h-40c-4 0-8 4-8 8v216h56V124c0-4-4-8-8-8z" fill="#ff4f19"/><path d="M404 116h-20c-4 0-8 4-8 8v216h28V116zM168 84h-48c-4 0-8 4-8 8v248h64V92c0-4-3-8-8-8z" fill="#e3001e"/><path d="M168 84h-24v256h32V92c0-4-3-8-8-8z" fill="#ff4f19"/><path d="M80 452c-3 0-6-1-7-4l-40-80a8 8 0 1 1 14-7l25 49v-46a8 8 0 1 1 16 0v80a8 8 0 0 1-8 8zm352 0h-2c-3-1-6-4-6-8v-80a8 8 0 1 1 16 0v46l25-49a8 8 0 0 1 14 7l-40 80c-1 3-4 4-7 4z" fill="#868491"/><path d="M248 84h-16c-4 0-8 4-8 8v248h32V92c0-4-4-8-8-8z" fill="#5d647f"/><path d="M368 84h-16c-4 0-8 4-8 8v248h32V92c0-4-4-8-8-8z" fill="#4bb9ec"/><path d="M104 108H88c-4 0-8 4-8 8v223l1 1h31V116c0-4-4-8-8-8z" fill="#ff9100"/><path d="M72 132H48c-4 0-8 4-8 8v200h40V140c0-4-4-8-8-8z" fill="#00c37a"/><path d="M464 100h-24c-4 0-8 4-8 8v232h40V108c0-4-4-8-8-8z" fill="#5d647f"/><path d="M336 60h-40c-4 0-8 4-8 8v272h56V68c0-4-4-8-8-8z" fill="#ff9100"/><path d="M280 116h-16c-4 0-8 4-8 8v216h32V124c0-4-4-8-8-8z" fill="#00c37a"/><path d="M216 100h-32c-4 0-8 4-8 8v232h48V108c0-4-4-8-8-8z" fill="#4bb9ec"/><path d="M504 372H8c-4 0-8-3-8-8v-16c0-4 4-8 8-8h496c5 0 8 4 8 8v16c0 5-3 8-8 8z" fill="#e6be8a"/><rect x="112px" y="108px" width="32px" height="16px" fill="#5d647f"/><rect x="144px" y="108px" width="32px" height="16px" fill="#868491"/><rect x="112px" y="300px" width="32px" height="16px" fill="#5d647f"/><rect x="144px" y="300px" width="32px" height="16px" fill="#868491"/><rect x="272px" y="140px" width="16px" height="16px" fill="#00a077"/><rect x="272px" y="292px" width="16px" height="16px" fill="#00a077"/><rect x="376px" y="140px" width="28px" height="16px" fill="#ff9100"/><rect x="376px" y="292px" width="28px" height="16px" fill="#ff9100"/><rect x="404px" y="140px" width="28px" height="16px" fill="#ffcd00"/><rect x="404px" y="292px" width="28px" height="16px" fill="#ffcd00"/><path d="M176 108v232h24V100h-16c-4 0-8 4-8 8z" fill="#009bca"/><path d="M80 340h16V108h-8c-4 0-8 4-8 8v224z" fill="#ff4f19"/><path d="M40 340h20V132H47c-4 0-7 3-7 7v201z" fill="#00a077"/><path d="M224 340h16V84h-8c-4 0-8 4-8 8v248z" fill="#5c546a"/><path d="M256 340h16V116h-8c-4 0-8 4-8 8v216z" fill="#00a077"/><rect x="256px" y="140px" width="16px" height="16px" fill="#5d647f"/><rect x="256px" y="292px" width="16px" height="16px" fill="#5d647f"/><path d="M288 340h28V60h-20c-4 0-8 4-8 8v272z" fill="#ff4f19"/><path d="M360 84h-8c-4 0-8 4-8 8v248h16V84z" fill="#009bca"/><path d="M452 100h-12c-4 0-8 4-8 8v232h20V100z" fill="#5c546a"/><path d="M0 356v8c0 5 4 8 8 8h496c5 0 8-3 8-8v-8H0z" fill="#c9a07c"/></g><g id="q"><path d="M448 0H96C83 0 72 11 72 24v464c0 13 11 24 24 24h352c13 0 24-11 24-24V24c0-13-11-24-24-24z" fill="#4bb9ec" transform="translate(341 82) scale(.11719)"/><path d="M120 0H88C75 0 64 11 64 24v464c0 13 11 24 24 24h32V0z" fill="#009bca" transform="translate(341 82) scale(.11719)"/><path d="M376 332l-1-1-45-143a12 12 0 0 0-2-24h-64a12 12 0 0 0-2 24l-45 143v1h-1a12 12 0 0 0 0 24h32a12 12 0 0 0 2-24l9-28h74l9 28a12 12 0 0 0 2 24h32a12 12 0 0 0 0-24zm-107-60l26-83 1-1h1v1l26 83h-54z" fill="#3482ac" transform="translate(341 82) scale(.11719)"/><path d="M80 64H48a8 8 0 1 1 0-16h32a8 8 0 1 1 0 16zm0 40H48a8 8 0 1 1 0-16h32a8 8 0 1 1 0 16zm0 40H48a8 8 0 1 1 0-16h32a8 8 0 1 1 0 16zm0 40H48a8 8 0 1 1 0-16h32a8 8 0 1 1 0 16zm0 40H48a8 8 0 1 1 0-16h32a8 8 0 1 1 0 16zm0 40H48a8 8 0 1 1 0-16h32a8 8 0 1 1 0 16zm0 40H48a8 8 0 1 1 0-16h32a8 8 0 1 1 0 16zm0 40H48a8 8 0 1 1 0-16h32a8 8 0 1 1 0 16zm0 40H48a8 8 0 1 1 0-16h32a8 8 0 1 1 0 16zm0 40H48a8 8 0 1 1 0-16h32a8 8 0 1 1 0 16zm0 40H48a8 8 0 1 1 0-16h32a8 8 0 1 1 0 16z" fill="#5c546a" transform="translate(341 82) scale(.11719)"/><path d="M120 496c-4 0-8-4-8-8V24a8 8 0 1 1 16 0v464c0 4-3 8-8 8z" fill="#3482ac" transform="translate(341 82) scale(.11719)"/></g><g id="s"><path d="M448 0H96C83 0 72 11 72 24v464c0 13 11 24 24 24h352c13 0 24-11 24-24V24c0-13-11-24-24-24z" fill="#4bb9ec" transform="translate(146 7) scale(.11719)"/><path d="M120 0H88C75 0 64 11 64 24v464c0 13 11 24 24 24h32V0z" fill="#009bca" transform="translate(146 7) scale(.11719)"/><path d="M376 332l-1-1-45-143a12 12 0 0 0-2-24h-64a12 12 0 0 0-2 24l-45 143v1h-1a12 12 0 0 0 0 24h32a12 12 0 0 0 2-24l9-28h74l9 28a12 12 0 0 0 2 24h32a12 12 0 0 0 0-24zm-107-60l26-83 1-1h1v1l26 83h-54z" fill="#3482ac" transform="translate(146 7) scale(.11719)"/><path d="M80 64H48a8 8 0 1 1 0-16h32a8 8 0 1 1 0 16zm0 40H48a8 8 0 1 1 0-16h32a8 8 0 1 1 0 16zm0 40H48a8 8 0 1 1 0-16h32a8 8 0 1 1 0 16zm0 40H48a8 8 0 1 1 0-16h32a8 8 0 1 1 0 16zm0 40H48a8 8 0 1 1 0-16h32a8 8 0 1 1 0 16zm0 40H48a8 8 0 1 1 0-16h32a8 8 0 1 1 0 16zm0 40H48a8 8 0 1 1 0-16h32a8 8 0 1 1 0 16zm0 40H48a8 8 0 1 1 0-16h32a8 8 0 1 1 0 16zm0 40H48a8 8 0 1 1 0-16h32a8 8 0 1 1 0 16zm0 40H48a8 8 0 1 1 0-16h32a8 8 0 1 1 0 16zm0 40H48a8 8 0 1 1 0-16h32a8 8 0 1 1 0 16z" fill="#5c546a" transform="translate(146 7) scale(.11719)"/><path d="M120 496c-4 0-8-4-8-8V24a8 8 0 1 1 16 0v464c0 4-3 8-8 8z" fill="#3482ac" transform="translate(146 7) scale(.11719)"/></g></defs><g fi:class="KUsePattern"><pattern id="b" width="350" height="350" patternUnits="userSpaceOnUse"><use xlink:href="#a" x="-350" y="-350"/><use xlink:href="#a" y="-350"/><use xlink:href="#a" x="350" y="-350"/><use xlink:href="#a" x="-350"/><use xlink:href="#a"/><use xlink:href="#a" x="350"/><use xlink:href="#a" x="-350" y="350"/><use xlink:href="#a" y="350"/><use xlink:href="#a" x="350" y="350"/></pattern><rect width="100%" height="100%" fill="url(#b)"/></g><g fi:class="KUsePattern"><pattern id="d" width="350" height="350" patternUnits="userSpaceOnUse"><use xlink:href="#c" x="-350" y="-350"/><use xlink:href="#c" y="-350"/><use xlink:href="#c" x="350" y="-350"/><use xlink:href="#c" x="-350"/><use xlink:href="#c"/><use xlink:href="#c" x="350"/><use xlink:href="#c" x="-350" y="350"/><use xlink:href="#c" y="350"/><use xlink:href="#c" x="350" y="350"/></pattern><rect width="100%" height="100%" fill="url(#d)"/></g><g fi:class="KUsePattern"><pattern id="f" width="350" height="350" patternUnits="userSpaceOnUse"><use xlink:href="#e" x="-350" y="-350"/><use xlink:href="#e" y="-350"/><use xlink:href="#e" x="350" y="-350"/><use xlink:href="#e" x="-350"/><use xlink:href="#e"/><use xlink:href="#e" x="350"/><use xlink:href="#e" x="-350" y="350"/><use xlink:href="#e" y="350"/><use xlink:href="#e" x="350" y="350"/></pattern><rect width="100%" height="100%" fill="url(#f)"/></g><g fi:class="KUsePattern"><pattern id="h" width="350" height="350" patternUnits="userSpaceOnUse"><use xlink:href="#g" x="-350" y="-350"/><use xlink:href="#g" y="-350"/><use xlink:href="#g" x="350" y="-350"/><use xlink:href="#g" x="-350"/><use xlink:href="#g"/><use xlink:href="#g" x="350"/><use xlink:href="#g" x="-350" y="350"/><use xlink:href="#g" y="350"/><use xlink:href="#g" x="350" y="350"/></pattern><rect width="100%" height="100%" fill="url(#h)"/></g><g fi:class="KUsePattern"><pattern id="j" width="350" height="350" patternUnits="userSpaceOnUse"><use xlink:href="#i" x="-350" y="-350"/><use xlink:href="#i" y="-350"/><use xlink:href="#i" x="350" y="-350"/><use xlink:href="#i" x="-350"/><use xlink:href="#i"/><use xlink:href="#i" x="350"/><use xlink:href="#i" x="-350" y="350"/><use xlink:href="#i" y="350"/><use xlink:href="#i" x="350" y="350"/></pattern><rect width="100%" height="100%" fill="url(#j)"/></g><g fi:class="KUsePattern"><pattern id="l" width="350" height="350" patternUnits="userSpaceOnUse"><use xlink:href="#k" x="-350" y="-350"/><use xlink:href="#k" y="-350"/><use xlink:href="#k" x="350" y="-350"/><use xlink:href="#k" x="-350"/><use xlink:href="#k"/><use xlink:href="#k" x="350"/><use xlink:href="#k" x="-350" y="350"/><use xlink:href="#k" y="350"/><use xlink:href="#k" x="350" y="350"/></pattern><rect width="100%" height="100%" fill="url(#l)"/></g><g fi:class="KUsePattern"><pattern id="n" width="350" height="350" patternUnits="userSpaceOnUse"><use xlink:href="#m" x="-350" y="-350"/><use xlink:href="#m" y="-350"/><use xlink:href="#m" x="350" y="-350"/><use xlink:href="#m" x="-350"/><use xlink:href="#m"/><use xlink:href="#m" x="350"/><use xlink:href="#m" x="-350" y="350"/><use xlink:href="#m" y="350"/><use xlink:href="#m" x="350" y="350"/></pattern><rect width="100%" height="100%" fill="url(#n)"/></g><g fi:class="KUsePattern"><pattern id="p" width="350" height="350" patternUnits="userSpaceOnUse"><use xlink:href="#o" x="-350" y="-350"/><use xlink:href="#o" y="-350"/><use xlink:href="#o" x="350" y="-350"/><use xlink:href="#o" x="-350"/><use xlink:href="#o"/><use xlink:href="#o" x="350"/><use xlink:href="#o" x="-350" y="350"/><use xlink:href="#o" y="350"/><use xlink:href="#o" x="350" y="350"/></pattern><rect width="100%" height="100%" fill="url(#p)"/></g><g fi:class="KUsePattern"><pattern id="r" width="350" height="350" patternUnits="userSpaceOnUse"><use xlink:href="#q" x="-350" y="-350"/><use xlink:href="#q" y="-350"/><use xlink:href="#q" x="350" y="-350"/><use xlink:href="#q" x="-350"/><use xlink:href="#q"/><use xlink:href="#q" x="350"/><use xlink:href="#q" x="-350" y="350"/><use xlink:href="#q" y="350"/><use xlink:href="#q" x="350" y="350"/></pattern><rect width="100%" height="100%" fill="url(#r)"/></g><g fi:class="KUsePattern"><pattern id="t" width="350" height="350" patternUnits="userSpaceOnUse"><use xlink:href="#s" x="-350" y="-350"/><use xlink:href="#s" y="-350"/><use xlink:href="#s" x="350" y="-350"/><use xlink:href="#s" x="-350"/><use xlink:href="#s"/><use xlink:href="#s" x="350"/><use xlink:href="#s" x="-350" y="350"/><use xlink:href="#s" y="350"/><use xlink:href="#s" x="350" y="350"/></pattern><rect width="100%" height="100%" fill="url(#t)"/></g></svg>